<svg xmlns="http://www.w3.org/2000/svg" viewBox="0 0 476.42 451.76"><g id="freepik--background-simple--inject-6"><path d="M435.58,132.74q-4.23-2.81-8.38-5.73C397.35,106,257.71,10.64,198.85,19.39,132.75,29.21-7.49,246.26,28.24,310.58S242.61,486.54,290,468.67,464.13,254.3,472.17,206.07C479,164.88,445.52,139.33,435.58,132.74Z" transform="translate(-6.67 -18.82)" style="fill:#7E57C2"></path><path d="M435.58,132.74q-4.23-2.81-8.38-5.73C397.35,106,257.71,10.64,198.85,19.39,132.75,29.21-7.49,246.26,28.24,310.58S242.61,486.54,290,468.67,464.13,254.3,472.17,206.07C479,164.88,445.52,139.33,435.58,132.74Z" transform="translate(-6.67 -18.82)" style="fill:#fff;opacity:0.8"></path></g><g id="freepik--Table--inject-6"><line x1="384.05" y1="438.53" x2="475.92" y2="438.53" style="fill:none;stroke:#263238;stroke-linecap:round;stroke-linejoin:round"></line><line x1="0.5" y1="438.53" x2="375.33" y2="438.53" style="fill:none;stroke:#263238;stroke-linecap:round;stroke-linejoin:round"></line></g><g id="freepik--Plant--inject-6"><path d="M441.41,357.43h0a.11.11,0,0,0-.06-.12.09.09,0,0,0-.12.05,128.32,128.32,0,0,0-6.75,21.16,197.64,197.64,0,0,0-3.73,21.93l-.52,5.54c-.09.93-.19,1.85-.25,2.78l-.15,2.78c-.08,1.85-.2,3.71-.25,5.57l.05,5.57.06,2.78c0,.93.11,1.85.17,2.78.14,1.85.26,3.7.43,5.55.35,3.7.91,7.37,1.48,11a.1.1,0,0,0,.09.08.09.09,0,0,0,.1-.1h0c0-1.86-.09-3.71-.13-5.56s-.21-3.68-.19-5.53,0-3.69-.06-5.53l0-2.76,0-2.76,0-5.52.15-5.52.05-2.76c0-.92.11-1.84.16-2.76l.34-5.51a194.64,194.64,0,0,1,3.12-21.88A128.8,128.8,0,0,1,441.41,357.43Z" transform="translate(-6.67 -18.82)" style="fill:#263238"></path><path d="M442.2,386.3a.09.09,0,0,0-.06-.12.09.09,0,0,0-.12.06,129.39,129.39,0,0,0-3.93,14,131.81,131.81,0,0,0-2.32,14.41c-.49,4.83-1,9.66-1.1,14.52a122.27,122.27,0,0,0,.52,14.57.09.09,0,0,0,.09.08.08.08,0,0,0,.1-.08c.57-4.84.91-9.66,1.24-14.49s.39-9.65.7-14.47a145.84,145.84,0,0,1,4.88-28.5Z" transform="translate(-6.67 -18.82)" style="fill:#263238"></path><path d="M458.21,396.45a.11.11,0,0,0-.14,0,49,49,0,0,0-10.7,9.33,43.12,43.12,0,0,0-4.18,5.82l-.86,1.62-.67,1.69a13.29,13.29,0,0,0-.59,1.71c-.17.57-.37,1.14-.52,1.72a69.31,69.31,0,0,0-2.22,14.12,82.41,82.41,0,0,0,.53,14.22.11.11,0,0,0,.09.08.1.1,0,0,0,.11-.09l1.22-14.07a125.35,125.35,0,0,1,1.78-13.88c.13-.57.29-1.12.43-1.68a15.86,15.86,0,0,1,.5-1.66l.57-1.63.74-1.53a40.29,40.29,0,0,1,3.83-5.82,48.3,48.3,0,0,1,10.05-9.78h0A.1.1,0,0,0,458.21,396.45Z" transform="translate(-6.67 -18.82)" style="fill:#263238"></path><path d="M450.46,414.53a15.59,15.59,0,0,0-4.86,5.85,34.74,34.74,0,0,0-2.73,7.17c-.19.61-.34,1.23-.48,1.86l-.44,1.87a32.59,32.59,0,0,0-.47,3.8c0,1.28-.05,2.55,0,3.83a35,35,0,0,0,.5,3.8.1.1,0,0,0,.08.07.09.09,0,0,0,.12-.07,33.18,33.18,0,0,0,.67-3.75c.2-1.23.39-2.47.54-3.7s.35-2.45.44-3.68.26-2.47.53-3.68a33.09,33.09,0,0,1,2.09-7.1,15.67,15.67,0,0,1,4.08-6.1h0a.12.12,0,0,0,0-.13A.11.11,0,0,0,450.46,414.53Z" transform="translate(-6.67 -18.82)" style="fill:#263238"></path><path d="M428,428.63c-.53-6.25-1.56-12.43-2.53-18.61s-2.06-12.35-3.19-18.51-2.39-12.28-3.72-18.39a.09.09,0,0,0-.11-.07.1.1,0,0,0-.08.11c1.07,6.16,2,12.34,2.95,18.52s1.82,12.36,2.6,18.56,1.36,12.41,2.14,18.6l2.28,18.59a.11.11,0,0,0,.1.09.1.1,0,0,0,.1-.09c.07-1.57.07-3.14.11-4.71s-.06-3.13-.09-4.7C428.52,434.88,428.25,431.76,428,428.63Z" transform="translate(-6.67 -18.82)" style="fill:#263238"></path><path d="M424.27,428.54c-.33-2.47-.79-4.93-1.26-7.39l-.88-3.64c-.28-1.22-.56-2.44-.91-3.64a103.15,103.15,0,0,0-4.78-14.21l-.75-1.72-.83-1.68c-.53-1.13-1.17-2.21-1.78-3.3a27.39,27.39,0,0,0-4.51-6,.09.09,0,0,0-.13,0,.1.1,0,0,0,0,.14h0a27.31,27.31,0,0,1,4.12,6.11c.55,1.11,1.12,2.21,1.58,3.35l.74,1.7.65,1.74a101.46,101.46,0,0,1,4.16,14.21c.57,2.41.95,4.86,1.41,7.28l.59,3.66c.21,1.22.47,2.43.64,3.65.39,2.45.84,4.88,1.27,7.33s.83,4.89,1.34,7.34a.1.1,0,0,0,.1.08.1.1,0,0,0,.1-.09q0-3.75-.18-7.49C424.83,433.51,424.53,431,424.27,428.54Z" transform="translate(-6.67 -18.82)" style="fill:#263238"></path><path d="M419.1,428.86c-1.16-3.28-2.5-6.49-4-9.63a87.62,87.62,0,0,0-5-9.13.11.11,0,0,0-.13,0,.11.11,0,0,0,0,.14,85.29,85.29,0,0,1,4.25,9.4c1.27,3.2,2.41,6.44,3.37,9.74s1.68,6.64,2.55,9.95,1.67,6.64,2.68,10a.1.1,0,0,0,.1.07.11.11,0,0,0,.1-.09,50.42,50.42,0,0,0-1-10.4A64.84,64.84,0,0,0,419.1,428.86Z" transform="translate(-6.67 -18.82)" style="fill:#263238"></path><path d="M418.89,439.78a22.66,22.66,0,0,0-2.75-5.77,24,24,0,0,0-4-5,18.2,18.2,0,0,0-2.54-1.92,10.62,10.62,0,0,0-2.89-1.31.09.09,0,0,0-.11.06.08.08,0,0,0,.05.12h0a14.38,14.38,0,0,1,4.79,3.72,23.11,23.11,0,0,1,3.34,5.06c.94,1.79,1.43,3.77,2.26,5.62.36,1,.72,1.9,1.14,2.85a25.06,25.06,0,0,0,1.26,2.89h0a.15.15,0,0,0,.09.06.1.1,0,0,0,.1-.1,22.63,22.63,0,0,0-.12-3.19C419.36,441.86,419.14,440.82,418.89,439.78Z" transform="translate(-6.67 -18.82)" style="fill:#263238"></path><path d="M419.27,382.07a17.81,17.81,0,0,1-12.6-13.39c-2.36-11,5.25-6.3-1.57-23.63s-5.25-21.26-2.89-26.25,3.68-3.41,5.78,3.15,9.71,16.8,12.6,36S419.27,382.07,419.27,382.07Z" transform="translate(-6.67 -18.82)" style="fill:#7E57C2"></path><path d="M439.49,363.43s-6.83-2.36-7.09-15.23,5-10.24,5.77-26.25,1.84-27.3,4.73-27.56,10.5,7.87,13.13,25.72-3.42,29.67-8.67,34.92S439.49,363.43,439.49,363.43Z" transform="translate(-6.67 -18.82)" style="fill:#7E57C2"></path><path d="M415.6,397.55s-1.58-9.45-4.73-13.91-10-8.4-14.44-17.06-9.45-12.86-9.18-.53,5.77,18.64,12.6,22.84S415.6,397.55,415.6,397.55Z" transform="translate(-6.67 -18.82)" style="fill:#7E57C2"></path><path d="M412.71,413.83s-6.3-12.08-15.49-21-16.54-13.39-13.91-8.93,5.77,4.2,10.24,12.08,3.15,13.65,9.45,18.11S412.71,413.83,412.71,413.83Z" transform="translate(-6.67 -18.82)" style="fill:#7E57C2"></path><path d="M411.92,429.32c-.26-.79-.52-6.56-9.45-11.29s-17.32-2.89-16.27-.52,6.56,6.3,12.07,8.66S411.92,429.32,411.92,429.32Z" transform="translate(-6.67 -18.82)" style="fill:#7E57C2"></path><path d="M439,398.08s-3.94-5-1.84-15.49,6.83-7.87,12.08-13.39,4.2-6.3,9.45-12.07,10-8.93,12.08-6.56-1.05,9.71-4.2,13.91-8.14,6.3-10.5,11.55-1.32,13.65-7.36,17.59S439,398.08,439,398.08Z" transform="translate(-6.67 -18.82)" style="fill:#7E57C2"></path><path d="M452.09,401s9.45-10.77,16.27-18.64,9.45-13.91,9.72-8.66,2.36,9.45-3.15,16.27S452.09,401,452.09,401Z" transform="translate(-6.67 -18.82)" style="fill:#7E57C2"></path><path d="M447.1,418.29s-.26-4.2,14.7-13.91,21.26-11.55,19.69-7.61-8.14,7.87-15.23,15S447.1,418.29,447.1,418.29Z" transform="translate(-6.67 -18.82)" style="fill:#7E57C2"></path><path d="M419.9,381s-3.51-18.83-7.19-32.22-6-21.53-6-21.53" transform="translate(-6.67 -18.82)" style="fill:none;stroke:#263238;stroke-linecap:round;stroke-linejoin:round;stroke-width:0.5px"></path><path d="M438.88,363.63s6.38-20.42,8.48-32.75-.26-21.53-1.31-27" transform="translate(-6.67 -18.82)" style="fill:none;stroke:#263238;stroke-linecap:round;stroke-linejoin:round;stroke-width:0.5px"></path><path d="M414.77,397.16a99,99,0,0,0-9.67-13.78c-5.78-6.83-10.24-10.5-12.87-17.06" transform="translate(-6.67 -18.82)" style="fill:none;stroke:#263238;stroke-linecap:round;stroke-linejoin:round;stroke-width:0.5px"></path><path d="M439,398.08s2.1-12.6,7.09-19.16,15-16.8,18.9-23.37" transform="translate(-6.67 -18.82)" style="fill:none;stroke:#263238;stroke-linecap:round;stroke-linejoin:round;stroke-width:0.5px"></path><path d="M411.31,429s-8.84-5.75-15.14-8.9" transform="translate(-6.67 -18.82)" style="fill:none;stroke:#263238;stroke-linecap:round;stroke-linejoin:round;stroke-width:0.5px"></path><polygon points="439.87 438.92 441.51 420.77 406.19 420.77 407.83 438.92 439.87 438.92" style="fill:#263238;stroke:#263238;stroke-linecap:round;stroke-linejoin:round"></polygon></g><g id="freepik--Window--inject-6"><path d="M22.16,19.48H149.85a0,0,0,0,1,0,0V251a62,62,0,0,1-62,62H84.16a62,62,0,0,1-62-62V19.48a0,0,0,0,1,0,0Z" transform="translate(165.33 313.62) rotate(180)" style="fill:none;stroke:#b2b2b2;stroke-linecap:round;stroke-linejoin:round"></path><path d="M135.43,312.27V85.39A49.43,49.43,0,0,0,86,36h0A49.43,49.43,0,0,0,36.58,85.39V312.27" transform="translate(-6.67 -18.82)" style="fill:none;stroke:#b2b2b2;stroke-linecap:round;stroke-linejoin:round"></path><line x1="79.33" y1="0.66" x2="79.33" y2="293.79" style="fill:none;stroke:#b2b2b2;stroke-linecap:round;stroke-linejoin:round"></line><line x1="142.49" y1="57.13" x2="16.34" y2="57.13" style="fill:none;stroke:#b2b2b2;stroke-linecap:round;stroke-linejoin:round"></line><line x1="66.43" y1="87.07" x2="69.08" y2="89.08" style="fill:none;stroke:#b2b2b2;stroke-linecap:round;stroke-linejoin:round"></line><line x1="33.34" y1="61.92" x2="61.15" y2="83.05" style="fill:none;stroke:#b2b2b2;stroke-linecap:round;stroke-linejoin:round"></line><line x1="45.49" y1="78.36" x2="60.5" y2="89.8" style="fill:none;stroke:#b2b2b2;stroke-linecap:round;stroke-linejoin:round"></line><line x1="93.69" y1="188.66" x2="118.39" y2="209.16" style="fill:none;stroke:#b2b2b2;stroke-linecap:round;stroke-linejoin:round"></line><line x1="84.8" y1="181.28" x2="89.1" y2="184.85" style="fill:none;stroke:#b2b2b2;stroke-linecap:round;stroke-linejoin:round"></line><line x1="106.96" y1="192.72" x2="123.4" y2="205.58" style="fill:none;stroke:#b2b2b2;stroke-linecap:round;stroke-linejoin:round"></line><line x1="62.92" y1="244.4" x2="66.22" y2="247.04" style="fill:none;stroke:#b2b2b2;stroke-linecap:round;stroke-linejoin:round"></line><line x1="37.63" y1="224.17" x2="57.67" y2="240.2" style="fill:none;stroke:#b2b2b2;stroke-linecap:round;stroke-linejoin:round"></line><line x1="49.06" y1="240.61" x2="58.35" y2="247.75" style="fill:none;stroke:#b2b2b2;stroke-linecap:round;stroke-linejoin:round"></line><line x1="142.49" y1="96.94" x2="16.34" y2="96.94" style="fill:none;stroke:#b2b2b2;stroke-linecap:round;stroke-linejoin:round"></line><line x1="142.49" y1="136.76" x2="16.34" y2="136.76" style="fill:none;stroke:#b2b2b2;stroke-linecap:round;stroke-linejoin:round"></line><line x1="142.49" y1="176.57" x2="16.34" y2="176.57" style="fill:none;stroke:#b2b2b2;stroke-linecap:round;stroke-linejoin:round"></line><line x1="142.49" y1="216.39" x2="16.34" y2="216.39" style="fill:none;stroke:#b2b2b2;stroke-linecap:round;stroke-linejoin:round"></line><line x1="142.49" y1="256.21" x2="16.34" y2="256.21" style="fill:none;stroke:#b2b2b2;stroke-linecap:round;stroke-linejoin:round"></line><line x1="125.62" y1="20.59" x2="114.18" y2="31" style="fill:none;stroke:#b2b2b2;stroke-linecap:round;stroke-linejoin:round"></line><line x1="33.52" y1="20.59" x2="44.96" y2="31" style="fill:none;stroke:#b2b2b2;stroke-linecap:round;stroke-linejoin:round"></line><rect x="18.13" y="313.1" width="135" height="8.33" transform="translate(164.59 615.7) rotate(180)" style="fill:none;stroke:#b2b2b2;stroke-linecap:round;stroke-linejoin:round"></rect></g><g id="freepik--character-3--inject-6"><path d="M294.9,172.81H447.06a5.83,5.83,0,0,1,5.83,5.83V315.95a0,0,0,0,1,0,0H289.07a0,0,0,0,1,0,0V178.64A5.83,5.83,0,0,1,294.9,172.81Z" style="fill:#fff;stroke:#263238;stroke-linecap:round;stroke-linejoin:round"></path><path d="M357.38,223.07s8.4-20.25,12.35-25.94,20-3.21,27.67,1.73,13.1,16.8,13.1,20-4.94,7.17-4.94,7.17a43.51,43.51,0,0,1-.25-6.42c.25-1.49-9.14-12.6-9.88-13.1s-6.92,3.95-6.92,3.95l-1.24,13.1L356.64,226Z" transform="translate(-6.67 -18.82)" style="fill:#7E57C2;stroke:#263238;stroke-linecap:round;stroke-linejoin:round"></path><path d="M388.2,213.77c-10.48-4.36-20.56-2.49-26.59-.49-2.38,5.33-4.23,9.79-4.23,9.79l-.74,3,30.63-2.47Z" transform="translate(-6.67 -18.82)" style="fill:#fff;stroke:#263238;stroke-linecap:round;stroke-linejoin:round"></path><ellipse cx="374.3" cy="254.19" rx="39.14" ry="35.58" transform="translate(-15.62 -5.12) rotate(-2.07)" style="fill:#7E57C2;stroke:#263238;stroke-linecap:round;stroke-linejoin:round"></ellipse><path d="M408.71,268.36a11.67,11.67,0,0,0-11.54-11.81l-.33,0c0-.11-.07-.21-.11-.32a11.84,11.84,0,0,0,6.1-10.41A11.68,11.68,0,0,0,391.55,234c0-.16,0-.31,0-.47A11.68,11.68,0,0,0,380,221.75a11.49,11.49,0,0,0-10.11,6.13,11.26,11.26,0,0,0-6-1.76,11.68,11.68,0,0,0-11.54,11.82,12,12,0,0,0,.85,4.42,8.94,8.94,0,0,0-.39,1,11.32,11.32,0,0,0-4.89-1.12,11.83,11.83,0,0,0-1.33,23.54,12.11,12.11,0,0,0-1.13,5.08,11.92,11.92,0,0,0,3.93,8.87c0,.4-.06.81-.06,1.22a11.67,11.67,0,0,0,11.54,11.81,11.27,11.27,0,0,0,6.21-1.87,11.32,11.32,0,0,0,14.69,1.24,11.38,11.38,0,0,0,8,3.32,11.68,11.68,0,0,0,11.54-11.81,12.08,12.08,0,0,0-.7-4A11.79,11.79,0,0,0,408.71,268.36Z" transform="translate(-6.67 -18.82)" style="fill:#263238;stroke:#263238;stroke-linecap:round;stroke-linejoin:round"></path><path d="M409.73,334.77c2-12.64,4.24-27.7,4.24-29,0-2.3-.31-4.6-5.07-3.84s-23.81-.46-23.81-.46l-2.31-17.82-5.38.15L367,283.63l-2.31,17.82s-19,1.23-23.81.46-5.07,1.54-5.07,3.84c0,1.32,2.28,16.38,4.24,29Z" transform="translate(-6.67 -18.82)" style="fill:#fff;stroke:#263238;stroke-linecap:round;stroke-linejoin:round"></path><path d="M409.73,334.77c2-12.64,4.24-27.7,4.24-29,0-2.3-.31-4.6-5.07-3.84s-23.81-.46-23.81-.46l-1.44-11.07a10.87,10.87,0,0,0-2.41.32c-6.14,1.53-5.53,6.14-5.53,6.14h-1.53c-2.49-4.69-5.91-5.41-8.25-5.24l-1.28,9.85s-19,1.23-23.81.46-5.07,1.54-5.07,3.84c0,1.32,2.28,16.38,4.24,29Z" transform="translate(-6.67 -18.82)" style="fill:#7E57C2;stroke:#263238;stroke-linecap:round;stroke-linejoin:round"></path><circle cx="368.27" cy="285.24" r="2.3" style="fill:#fff;stroke:#263238;stroke-linecap:round;stroke-linejoin:round"></circle><circle cx="368.27" cy="296.15" r="2.3" style="fill:#fff;stroke:#263238;stroke-linecap:round;stroke-linejoin:round"></circle><circle cx="368.27" cy="307.06" r="2.3" style="fill:#fff;stroke:#263238;stroke-linecap:round;stroke-linejoin:round"></circle><path d="M347.81,328.42a46.06,46.06,0,0,1,1.32-11.91" transform="translate(-6.67 -18.82)" style="fill:none;stroke:#263238;stroke-miterlimit:10"></path><path d="M400.24,328.42a45.64,45.64,0,0,0-1.33-11.91" transform="translate(-6.67 -18.82)" style="fill:none;stroke:#263238;stroke-miterlimit:10"></path><path d="M375.43,249.75a16.48,16.48,0,0,1-8.41,5.84c-5.6,1.69-7.55.6-7.55.6s-.84,14.57.28,18.77,7.74,14.13,11.11,15.53,6,.88,8.34-1c5.07-4,9.31-10,10.4-15,.85-3.92,1.8-16.33,1.8-16.33S380.19,258.15,375.43,249.75Z" transform="translate(-6.67 -18.82)" style="fill:#fff;stroke:#263238;stroke-linecap:round;stroke-linejoin:round"></path><path d="M372.5,270.51a2,2,0,0,0,0,3.28,3.1,3.1,0,0,0,4.92-.41c.82-1.37-.54-2.32-.54-2.73" transform="translate(-6.67 -18.82)" style="fill:none;stroke:#263238;stroke-linecap:round;stroke-linejoin:round"></path><path d="M369.08,276.26a9.74,9.74,0,0,0,10.53.13" transform="translate(-6.67 -18.82)" style="fill:none;stroke:#263238;stroke-linecap:round;stroke-linejoin:round"></path><path d="M364.56,260.66s1.1-3.15,5.47-2.47" transform="translate(-6.67 -18.82)" style="fill:none;stroke:#263238;stroke-linecap:round;stroke-linejoin:round"></path><path d="M379.34,259.15s3.56-1.91,5.2,1.51" transform="translate(-6.67 -18.82)" style="fill:none;stroke:#263238;stroke-linecap:round;stroke-linejoin:round"></path><path d="M369.21,265.65c0,1.25-.49,2.26-1.09,2.26s-1.1-1-1.1-2.26.49-2.26,1.1-2.26S369.21,264.41,369.21,265.65Z" transform="translate(-6.67 -18.82)" style="fill:#263238"></path><path d="M382.62,266.4c0,1.25-.49,2.26-1.09,2.26s-1.1-1-1.1-2.26.49-2.25,1.1-2.25S382.62,265.16,382.62,266.4Z" transform="translate(-6.67 -18.82)" style="fill:#263238"></path><path d="M294.9,172.81H447.06a5.83,5.83,0,0,1,5.83,5.83v4.27a0,0,0,0,1,0,0H289.07a0,0,0,0,1,0,0v-4.27A5.83,5.83,0,0,1,294.9,172.81Z" style="fill:#263238;stroke:#263238;stroke-linecap:round;stroke-linejoin:round"></path><path d="M305.28,197a1.69,1.69,0,1,0-1.68,1.69A1.69,1.69,0,0,0,305.28,197Z" transform="translate(-6.67 -18.82)" style="fill:#fff"></path><path d="M311.7,197a1.69,1.69,0,1,0-1.69,1.69A1.69,1.69,0,0,0,311.7,197Z" transform="translate(-6.67 -18.82)" style="fill:#fff"></path><path d="M318.11,197a1.69,1.69,0,1,0-1.69,1.69A1.69,1.69,0,0,0,318.11,197Z" transform="translate(-6.67 -18.82)" style="fill:#fff"></path></g><g id="freepik--charafter-2--inject-6"><path d="M194.44,10.67H346.59a5.83,5.83,0,0,1,5.83,5.83V153.8a0,0,0,0,1,0,0H188.61a0,0,0,0,1,0,0V16.5a5.83,5.83,0,0,1,5.83-5.83Z" style="fill:#fff;stroke:#263238;stroke-linecap:round;stroke-linejoin:round"></path><path d="M316.64,172.62c-5.25-11.15-29-61-35.27-61.73-7-.82-12.79,16.5-16.5,29.29-3.54,12.19-9,30.73-9.45,32.44Z" transform="translate(-6.67 -18.82)" style="fill:#263238;stroke:#263238;stroke-linecap:round;stroke-linejoin:round"></path><path d="M224.09,172.62a52.2,52.2,0,0,0,5.68-16.08c1.75-10.47,1.53-17.23-1.09-22.9s-11.78-5.45-11.78-5.45a181.93,181.93,0,0,0-4.79,26.17,139.85,139.85,0,0,0-.77,18.26Z" transform="translate(-6.67 -18.82)" style="fill:#adadad;stroke:#263238;stroke-linecap:round;stroke-linejoin:round"></path><path d="M334.76,172.62h12.75a139.85,139.85,0,0,0-.77-18.26c-1.3-13.3-1.81-27.66-1.81-27.66s-12.14,1.27-14.76,6.94-2.84,12.43-1.09,22.9A52.2,52.2,0,0,0,334.76,172.62Z" transform="translate(-6.67 -18.82)" style="fill:#adadad;stroke:#263238;stroke-linecap:round;stroke-linejoin:round"></path><path d="M223.51,172.62h40.12c1.47-2.92,4-9.09,6.84-21C275,132.8,279.68,126,279.68,126s11.64,16,18.39,26.68c4.95,7.8,11.33,16.11,14.38,20h23c-.24-7-.95-28.46-.95-39,0-12.68-.4-25.15-.4-25.15s-3.86.53-7.81,4.83a43.91,43.91,0,0,1-3.61,3.6l-8.59-7.36c-4.29-3.68-13.53-4.76-13.53-4.76s-21.48-.2-35.38,3.69-14.32,9.2-14.32,9.2l-8.62,7.49c1-1.73-1.11-2.54-5.16-4-4.44-1.56-10.14-.67-10.14-.67S227,143.22,227,153C227,160.24,224.73,168.65,223.51,172.62Z" transform="translate(-6.67 -18.82)" style="fill:#7E57C2;stroke:#263238;stroke-linecap:round;stroke-linejoin:round"></path><path d="M264.53,98.65s-4.09,1-13.29,6.95-9.4,21.48-9.4,21.48,3.47-7.57,17.38-7.37S279.68,126,279.68,126s11.64-13,19-16.27A25.86,25.86,0,0,1,313,107.85s-8.79-9.2-19.83-12.06S278,94,276.6,94.15,264.53,98.65,264.53,98.65Z" transform="translate(-6.67 -18.82)" style="fill:#263238;stroke:#263238;stroke-linecap:round;stroke-linejoin:round"></path><path d="M266.15,103s-.41,5.66,1.24,9.94,10.77,13.25,12.29,13,5.39-16.71,5-19.88-3.17-10-3.17-10.36S272.64,103.59,266.15,103Z" transform="translate(-6.67 -18.82)" style="fill:#fff;stroke:#263238;stroke-linecap:round;stroke-linejoin:round"></path><path d="M255.38,82.46s-4.14-3.86-5.66-1.38,4.14,7,5.25,8.15S255.38,82.46,255.38,82.46Z" transform="translate(-6.67 -18.82)" style="fill:none;stroke:#263238;stroke-linecap:round;stroke-linejoin:round"></path><path d="M284.37,76.25s3.46-4.69,4.56-1.93-4.14,9.11-4.14,9.11Z" transform="translate(-6.67 -18.82)" style="fill:#fff;stroke:#263238;stroke-linecap:round;stroke-linejoin:round"></path><path d="M252.38,70.68a4.82,4.82,0,0,0-2.52,5.16c.69,3.59,5.52,6.62,5.52,6.62l-.93-11.41Z" transform="translate(-6.67 -18.82)" style="fill:#263238;stroke:#263238;stroke-linecap:round;stroke-linejoin:round"></path><path d="M254.45,71.05s-11.69,1.32-11.13-7.16S256.71,52,261.05,51.82a25.45,25.45,0,0,1,9.05,1.7S278.21,51.25,282,55a15.61,15.61,0,0,1,4.71,11.87,36,36,0,0,1-1.88,8.3s-6-7-9.24-7.92S266.52,66,262,68A70.4,70.4,0,0,1,254.45,71.05Z" transform="translate(-6.67 -18.82)" style="fill:#263238;stroke:#263238;stroke-linecap:round;stroke-linejoin:round"></path><path d="M252.38,70.68s-.19.94.56,4.14,3.21,22.25,5.09,24.52,11.5,6.79,13.77,7.16,4-.37,6.6-3.58a40.6,40.6,0,0,0,6.41-12.26c.75-3-.38-17-.38-17s-11.31-11.12-13.58-11.5-3.39-.94-5.84.38S252.38,70.68,252.38,70.68Z" transform="translate(-6.67 -18.82)" style="fill:#fff;stroke:#263238;stroke-linecap:round;stroke-linejoin:round"></path><path d="M264.82,74.82a24.29,24.29,0,0,1-.19,4.91c-.38,2.26-2.83,8.11-.19,7.16a8.87,8.87,0,0,0,4.15-3.58" transform="translate(-6.67 -18.82)" style="fill:none;stroke:#263238;stroke-linecap:round;stroke-linejoin:round"></path><path d="M277.07,81.05s-2.45,13-4.71,15.46-2.45.56-4.71-2.07a20,20,0,0,0-2.39-2.28l-1-.75c-1.72-1.32-3.25-2.26-3.25-2.26s1,0,2.37,0c2.3-.11,5.77-.54,8-2.06a19.94,19.94,0,0,0,2.88-2.47A20.58,20.58,0,0,0,277.07,81.05Z" transform="translate(-6.67 -18.82)" style="fill:#263238;stroke:#263238;stroke-linecap:round;stroke-linejoin:round"></path><path d="M271,79.92a14.64,14.64,0,0,1,4.72-2.83" transform="translate(-6.67 -18.82)" style="fill:none;stroke:#263238;stroke-linecap:round;stroke-linejoin:round"></path><path d="M257.84,83.88a9.15,9.15,0,0,1,3-.76" transform="translate(-6.67 -18.82)" style="fill:none;stroke:#263238;stroke-linecap:round;stroke-linejoin:round"></path><path d="M272.72,74.9c.24,1.18,0,2.22-.59,2.33s-1.21-.74-1.44-1.92,0-2.22.58-2.33S272.48,73.73,272.72,74.9Z" transform="translate(-6.67 -18.82)" style="fill:#263238"></path><path d="M261.45,78.15c.23,1.17,0,2.22-.59,2.33s-1.21-.75-1.45-1.92,0-2.22.59-2.33S261.21,77,261.45,78.15Z" transform="translate(-6.67 -18.82)" style="fill:#263238"></path><path d="M256.52,75.77a6,6,0,0,1,4.53-2.83" transform="translate(-6.67 -18.82)" style="fill:none;stroke:#263238;stroke-linecap:round;stroke-linejoin:round"></path><path d="M268.59,71.05a5.87,5.87,0,0,1,5.66-.94" transform="translate(-6.67 -18.82)" style="fill:none;stroke:#263238;stroke-linecap:round;stroke-linejoin:round"></path><path d="M274.3,84.61v6.83l-2.08-3a19.78,19.78,0,0,1-2.76,1.24,16.34,16.34,0,0,1-3.31.55l-.89,2-.36.8-.6-1.55-.78-2-.1-.23c2.3-.11,5.77-.54,8-2.06A19.94,19.94,0,0,0,274.3,84.61Z" transform="translate(-6.67 -18.82)" style="fill:#fff;stroke:#263238;stroke-linecap:round;stroke-linejoin:round"></path><circle cx="274.53" cy="122.47" r="2.15" style="fill:#fff;stroke:#263238;stroke-linecap:round;stroke-linejoin:round"></circle><path d="M285.19,153.76a2.15,2.15,0,1,1-2.15-2.14A2.15,2.15,0,0,1,285.19,153.76Z" transform="translate(-6.67 -18.82)" style="fill:#fff;stroke:#263238;stroke-linecap:round;stroke-linejoin:round"></path><circle cx="278.21" cy="147.42" r="2.15" style="fill:#fff;stroke:#263238;stroke-linecap:round;stroke-linejoin:round"></circle><polygon points="327.03 62.52 328.1 75.33 339.25 74.74 336.63 61.58 327.03 62.52" style="fill:#fff;stroke:#263238;stroke-linecap:round;stroke-linejoin:round"></polygon><path d="M330.25,75.28s-4.71-2-5.32-2.25-3.48,1.43-3.07,3.48,4.91,3.68,5.93,4.49,2.46,2.66,5.52,2.46a30.42,30.42,0,0,0,5.32-.82s.41,1.23,2.66.61,4.5-1.43,4.5-1.43l2.45.82s-1.43,2.66,0,3.07,2.86.41,3.27-2,1-6.75.82-8.38-3.47-3.07-3.47-3.07a7.21,7.21,0,0,0-.41-3.27,4.44,4.44,0,0,0-3.07-2c-1,0-4.3,3.07-4.91,3.28a16.8,16.8,0,0,1-1.84.4s1.64-5.72-1-6.95-5.11-1.23-4.91,0-1.43,9.61-1.43,9.61Z" transform="translate(-6.67 -18.82)" style="fill:#fff;stroke:#263238;stroke-linecap:round;stroke-linejoin:round"></path><path d="M332.7,63.62a50,50,0,0,1,1,6.46c.12,2.49.6,4.15,1.9,4.15s2.62-1,3-3.66.53-4.52-.18-6.18S334,62.74,332.7,63.62Z" transform="translate(-6.67 -18.82)" style="fill:#fff;stroke:#263238;stroke-linecap:round;stroke-linejoin:round"></path><path d="M345.38,66.89s-.65,1.41-1.6,3.78-1.89,4.75-.71,5.22,2,1.07,3.2-.71,3.05-2.54,2.61-4.39S346.5,66.79,345.38,66.89Z" transform="translate(-6.67 -18.82)" style="fill:#fff;stroke:#263238;stroke-linecap:round;stroke-linejoin:round"></path><path d="M349.24,73.64l.12,3.55s-5.22,2-3.68,3.33,3.92.59,4.86-.12a3.56,3.56,0,0,0,1.78-2.85c0-1.3,1-.87,0-2.27l-1-1.41" transform="translate(-6.67 -18.82)" style="fill:#fff;stroke:#263238;stroke-linecap:round;stroke-linejoin:round"></path><line x1="342.33" y1="62.76" x2="341.57" y2="63.82" style="fill:#fff;stroke:#263238;stroke-linecap:round;stroke-linejoin:round"></line><path d="M324.93,73s3.91,2.39,4.15,3.57a2.23,2.23,0,0,1-1.9,2.49c-1.19.24-3.8,0-4.51-.83s-1.89-1.07-1.18-2.73S324,72.78,324.93,73Z" transform="translate(-6.67 -18.82)" style="fill:#fff;stroke:#263238;stroke-linecap:round;stroke-linejoin:round"></path><path d="M334.07,108.47l-.62-16.36,13.09-.82s5.32,32.1,4.09,38.65-15.95,8.38-15.95,8.38C334.49,139,334.28,111.49,334.07,108.47Z" transform="translate(-6.67 -18.82)" style="fill:#263238;stroke:#263238;stroke-linecap:round;stroke-linejoin:round"></path><polygon points="221.23 62.52 220.16 75.33 209.01 74.74 211.62 61.58 221.23 62.52" style="fill:#fff;stroke:#263238;stroke-linecap:round;stroke-linejoin:round"></polygon><path d="M231.36,75.28s4.7-2,5.32-2.25,3.47,1.43,3.07,3.48-4.91,3.68-5.94,4.49-2.45,2.66-5.52,2.46a30.41,30.41,0,0,1-5.31-.82s-.41,1.23-2.66.61-4.5-1.43-4.5-1.43l-2.46.82s1.44,2.66,0,3.07-2.86.41-3.27-2-1-6.75-.82-8.38,3.48-3.07,3.48-3.07a7.21,7.21,0,0,1,.41-3.27,4.4,4.4,0,0,1,3.07-2c1,0,4.29,3.07,4.91,3.28a16.8,16.8,0,0,0,1.84.4s-1.64-5.72,1-6.95,5.11-1.23,4.91,0,1.43,9.61,1.43,9.61Z" transform="translate(-6.67 -18.82)" style="fill:#fff;stroke:#263238;stroke-linecap:round;stroke-linejoin:round"></path><path d="M228.91,63.62a49.29,49.29,0,0,0-1,6.46c-.12,2.49-.59,4.15-1.89,4.15s-2.62-1-3-3.66-.53-4.52.18-6.18S227.66,62.74,228.91,63.62Z" transform="translate(-6.67 -18.82)" style="fill:#fff;stroke:#263238;stroke-linecap:round;stroke-linejoin:round"></path><path d="M216.23,66.89s.64,1.41,1.59,3.78,1.9,4.75.71,5.22-2,1.07-3.2-.71-3-2.54-2.61-4.39S215.11,66.79,216.23,66.89Z" transform="translate(-6.67 -18.82)" style="fill:#fff;stroke:#263238;stroke-linecap:round;stroke-linejoin:round"></path><path d="M212.37,73.64l-.12,3.55s5.22,2,3.67,3.33-3.91.59-4.86-.12a3.56,3.56,0,0,1-1.78-2.85c0-1.3-1-.87,0-2.27l1-1.41" transform="translate(-6.67 -18.82)" style="fill:#fff;stroke:#263238;stroke-linecap:round;stroke-linejoin:round"></path><line x1="205.93" y1="62.76" x2="206.69" y2="63.82" style="fill:#fff;stroke:#263238;stroke-linecap:round;stroke-linejoin:round"></line><path d="M236.68,73s-3.91,2.39-4.15,3.57a2.22,2.22,0,0,0,1.9,2.49c1.18.24,3.79,0,4.5-.83s1.9-1.07,1.19-2.73S237.62,72.78,236.68,73Z" transform="translate(-6.67 -18.82)" style="fill:#fff;stroke:#263238;stroke-linecap:round;stroke-linejoin:round"></path><path d="M227.54,108.47l.61-16.36-13.08-.82s-5.32,32.1-4.09,38.65,16,8.38,16,8.38S226.52,108.47,227.54,108.47Z" transform="translate(-6.67 -18.82)" style="fill:#263238;stroke:#263238;stroke-linecap:round;stroke-linejoin:round"></path><path d="M242,130.14A32.21,32.21,0,0,1,247.91,146" transform="translate(-6.67 -18.82)" style="fill:none;stroke:#263238;stroke-linecap:round;stroke-linejoin:round"></path><path d="M252.1,148.06c.15.94.27,1.9.35,2.89" transform="translate(-6.67 -18.82)" style="fill:none;stroke:#263238;stroke-linecap:round;stroke-linejoin:round"></path><path d="M246,132.53a39.58,39.58,0,0,1,5.15,11.26" transform="translate(-6.67 -18.82)" style="fill:none;stroke:#263238;stroke-linecap:round;stroke-linejoin:round"></path><path d="M322.65,116.9a103.38,103.38,0,0,0-6.2,24.48" transform="translate(-6.67 -18.82)" style="fill:none;stroke:#263238;stroke-linecap:round;stroke-linejoin:round"></path><path d="M314.36,140.84q-.21,1.47-.39,2.88" transform="translate(-6.67 -18.82)" style="fill:none;stroke:#263238;stroke-linecap:round;stroke-linejoin:round"></path><path d="M317.14,125.71s-1.46,6.66-2.53,13.44" transform="translate(-6.67 -18.82)" style="fill:none;stroke:#263238;stroke-linecap:round;stroke-linejoin:round"></path><path d="M194.44,10.67H346.59a5.83,5.83,0,0,1,5.83,5.83v4.27a0,0,0,0,1,0,0H188.61a0,0,0,0,1,0,0V16.5A5.83,5.83,0,0,1,194.44,10.67Z" style="fill:#263238;stroke:#263238;stroke-linecap:round;stroke-linejoin:round"></path><path d="M204.82,34.89a1.69,1.69,0,1,0-1.69,1.69A1.69,1.69,0,0,0,204.82,34.89Z" transform="translate(-6.67 -18.82)" style="fill:#fff"></path><path d="M211.23,34.89a1.69,1.69,0,1,0-1.68,1.69A1.68,1.68,0,0,0,211.23,34.89Z" transform="translate(-6.67 -18.82)" style="fill:#fff"></path><path d="M217.65,34.89A1.69,1.69,0,1,0,216,36.58,1.69,1.69,0,0,0,217.65,34.89Z" transform="translate(-6.67 -18.82)" style="fill:#fff"></path></g><g id="freepik--character-1--inject-6"><path d="M203.61,319.49s18.62,29,28.06,38.61,11.44,11.6,11.44,11.6l12,20.42s2.34,24.77,0,43.17-2.34,23.77-2.34,23.77h-160s-6-27.11-6.36-52.22-.66-30.45-.66-30.45l17.74-1.68s15.73-29.12,20.08-37.15,21.08-20.42,27.44-26.11S188.55,301.42,203.61,319.49Z" transform="translate(-6.67 -18.82)" style="fill:#263238;stroke:#263238;stroke-linecap:round;stroke-linejoin:round"></path><path d="M92.05,378.23s0,.77.12,2.17c.69,12,3.92,69.56,3.36,72.1-.64,2.85-8.22-28.13-7.59-62.89C87.94,389.61,91.1,372.54,92.05,378.23Z" transform="translate(-6.67 -18.82)" style="fill:#7E57C2;stroke:#263238;stroke-linecap:round;stroke-linejoin:round"></path><polygon points="207.47 438.24 122.92 438.24 160.91 319.66 207.47 438.24" style="fill:#7E57C2;stroke:#263238;stroke-linecap:round;stroke-linejoin:round"></polygon><path d="M187.21,299.75a74.08,74.08,0,0,1,15.38,8c6.64,4.77,10.88,14.32,11.14,15.12S201.8,321.5,192,324.42s-24.41,14.06-24.41,14.06-19.36-12.73-25.2-14.06-28.64,3.71-28.64,3.71,10.34-15.65,22-22S166.52,294.18,187.21,299.75Z" transform="translate(-6.67 -18.82)" style="fill:#7E57C2;stroke:#263238;stroke-linecap:round;stroke-linejoin:round"></path><path d="M153.53,314.61c.79,2.65,11.67,23.07,14.06,23.87s12.73-19.89,13.52-22.55a17.45,17.45,0,0,0,.06-5.06c-.32-4.12-1.12-9-1.12-9l-24.4.26a70.58,70.58,0,0,0-2.17,9.77A7.74,7.74,0,0,0,153.53,314.61Z" transform="translate(-6.67 -18.82)" style="fill:#fff;stroke:#263238;stroke-linecap:round;stroke-linejoin:round"></path><path d="M153.48,311.91c3,.24,6.18.36,9.38.36a117.65,117.65,0,0,0,18.31-1.4c-.32-4.12-1.12-9-1.12-9l-24.4.26A70.58,70.58,0,0,0,153.48,311.91Z" transform="translate(-6.67 -18.82)" style="fill:#263238;stroke:#263238;stroke-linecap:round;stroke-linejoin:round"></path><path d="M171.17,220.81s16.13-5.22,28.7,6.64,19.21,30.83,13.76,49.57-21.82,26.08-28.94,27.74a74.09,74.09,0,0,1-11.14,1.9s-12.57.95-21.11-.24-18.26-3.55-25.14-10.91S112.36,270.14,115,252.35s17.55-28.46,29.88-32,20.39.48,20.39.48Z" transform="translate(-6.67 -18.82)" style="fill:#7E57C2;stroke:#263238;stroke-linecap:round;stroke-linejoin:round"></path><path d="M192.52,236.46s-11.62-16.84-27.28-15.65S141.77,235.75,141.77,240" transform="translate(-6.67 -18.82)" style="fill:none;stroke:#263238;stroke-linecap:round;stroke-linejoin:round"></path><path d="M168.09,220.81A64.48,64.48,0,0,0,161,208c-4.75-6.64-6.17-5-7.36-4s-3.32,1.9-2.84,2.84,5.45,2.85,8.06,5.93,6.4,8.07,6.4,8.07Z" transform="translate(-6.67 -18.82)" style="fill:#263238;stroke:#263238;stroke-linecap:round;stroke-linejoin:round"></path><path d="M169,270.38s1-.95,13.76-10,17.31-10.19,17.31-8.3.24,18.27-10,23S171.89,273.7,169,270.38Z" transform="translate(-6.67 -18.82)" style="fill:#263238;stroke:#263238;stroke-linecap:round;stroke-linejoin:round"></path><path d="M160.47,270.38s.51-.24-12.3-9.25-18.77-10.91-18.77-9-.24,18.27,10,23S157.62,273.7,160.47,270.38Z" transform="translate(-6.67 -18.82)" style="fill:#263238;stroke:#263238;stroke-linecap:round;stroke-linejoin:round"></path><path d="M165,272.51s5,7.11,4.27,8.06-6.88.71-8.78,0S165,272.51,165,272.51Z" transform="translate(-6.67 -18.82)" style="fill:#263238;stroke:#263238;stroke-linecap:round;stroke-linejoin:round"></path><polygon points="149.8 264.12 161.18 269.82 169.72 262.94 178.02 267.68 195.57 255.59 177.07 281.91 169.01 277.88 158.1 283.1 147.19 278.35 139.84 282.15 122.52 257.72 140.55 269.58 149.8 264.12" style="fill:#263238;stroke:#263238;stroke-linecap:round;stroke-linejoin:round"></polygon><ellipse cx="172.92" cy="249.3" rx="1.78" ry="3.44" style="fill:#fff;stroke:#263238;stroke-linecap:round;stroke-linejoin:round"></ellipse><path d="M148.88,268.12c0,1.9.8,3.44,1.78,3.44s1.78-1.54,1.78-3.44-.8-3.44-1.78-3.44S148.88,266.22,148.88,268.12Z" transform="translate(-6.67 -18.82)" style="fill:#fff;stroke:#263238;stroke-linecap:round;stroke-linejoin:round"></path><path d="M194.65,239.54a16.87,16.87,0,0,1,2.61,4.75" transform="translate(-6.67 -18.82)" style="fill:none;stroke:#263238;stroke-linecap:round;stroke-linejoin:round"></path><path d="M242.44,417.23l6.69,38.82s1.68-18.07,2.68-33.47a164.86,164.86,0,0,0-.67-28.45Z" transform="translate(-6.67 -18.82)" style="fill:#7E57C2;stroke:#263238;stroke-linecap:round;stroke-linejoin:round"></path><path d="M258.51,372.71s0,8.37-4.36,23.1-11.71,21.42-11.71,21.42l-4.35-54.56Z" transform="translate(-6.67 -18.82)" style="fill:#fff;stroke:#263238;stroke-linecap:round;stroke-linejoin:round"></path><path d="M264.12,357.87l2.28,16.69s-1.6,5.71-14.17,3.42S231.9,361.3,231.67,358.1l-.23-3.2,11.88-8.68Z" transform="translate(-6.67 -18.82)" style="fill:#7E57C2;stroke:#263238;stroke-linecap:round;stroke-linejoin:round"></path><path d="M229.38,330.26s7.17,5.3,9.82,4.77,7.43-6.1,12.2-11.67,8.22-3.45,9.28-1.06.27,12.2.27,12.2,4.77-1.33,7.43-2.39,7.16,4,6.1,5.84-6.9,8.22-6.9,8.22,5.83,2.92,5,4.77-2.65,11.14-8,11.14-10.87-.26-13.26-2.65a67.21,67.21,0,0,1-5.31-6.36s-8-.53-10.61-2.39-7.95-8.49-7.95-8.49-4.78-3.45-5-6.36S225.67,328.4,229.38,330.26Z" transform="translate(-6.67 -18.82)" style="fill:#7E57C2;stroke:#263238;stroke-linecap:round;stroke-linejoin:round"></path><path d="M261,334.5S258.3,343,257,343s-2.65.26-5.57-2.92,2.12-13.53,2.12-13.53" transform="translate(-6.67 -18.82)" style="fill:#7E57C2;stroke:#263238;stroke-linecap:round;stroke-linejoin:round"></path><path d="M267.58,346.17s-3.45,3.45-6.1,2.65-3.18-1.06-1.59-4.77,5.83-7.69,5.83-7.69" transform="translate(-6.67 -18.82)" style="fill:#7E57C2;stroke:#263238;stroke-linecap:round;stroke-linejoin:round"></path><path d="M271,353.07s3.45,4,3.18,6.89-1.59,8-4,7.25-1.54-4.17-1.59-6.45C268.56,357,269.7,351.74,271,353.07Z" transform="translate(-6.67 -18.82)" style="fill:#7E57C2;stroke:#263238;stroke-linecap:round;stroke-linejoin:round"></path><path d="M266.52,350.41s-5.84,7.17-4.51,10.88,5,2.65,6.63-.53,4-9.82,4-9.82" transform="translate(-6.67 -18.82)" style="fill:#7E57C2;stroke:#263238;stroke-linecap:round;stroke-linejoin:round"></path><path d="M230.45,332.38s6.36,6.89,4.24,9-7.16.79-7.16.79" transform="translate(-6.67 -18.82)" style="fill:none;stroke:#263238;stroke-linecap:round;stroke-linejoin:round"></path><path d="M69.77,364.15l25.52,3.62s1.28,6.59-2.34,17.65-13.61,17.22-13.61,17.22L68.07,383.29s-16.38-4.68-19.78-6.8-3.4-22.76-3.83-24.67,18.72-.43,18.72-.43Z" transform="translate(-6.67 -18.82)" style="fill:#7E57C2;stroke:#263238;stroke-linecap:round;stroke-linejoin:round"></path><path d="M66.72,146.51,51.13,457.35H45.62l16-311.1a2.57,2.57,0,0,1,3-2.4h0A2.58,2.58,0,0,1,66.72,146.51Z" transform="translate(-6.67 -18.82)" style="fill:#fff;stroke:#263238;stroke-linecap:round;stroke-linejoin:round"></path><path d="M66,151s27.58-14.85,77.65,3.82,71.7,48.79,71.7,48.79S173.75,179,133.87,179.45,64.35,190,64.35,190Z" transform="translate(-6.67 -18.82)" style="fill:#263238;stroke:#263238;stroke-linecap:round;stroke-linejoin:round"></path><path d="M133.87,179.45C94,179.87,64.35,190,64.35,190L65,174.74a123.15,123.15,0,0,1,57.45-6.47c58.42,7.22,92.89,35.36,92.89,35.36S173.75,179,133.87,179.45Z" transform="translate(-6.67 -18.82)" style="fill:#fff;stroke:#263238;stroke-linecap:round;stroke-linejoin:round"></path><path d="M55.1,348.41s-14-3.61-14.89-.42-1.91,6.59.64,7.23,10.21,1.49,11.27,1.28S55.52,354.58,55.1,348.41Z" transform="translate(-6.67 -18.82)" style="fill:#7E57C2;stroke:#263238;stroke-linecap:round;stroke-linejoin:round"></path><path d="M40.85,355.22s-1.07,1.49.21,4.68,4.68,3.61,7.87,4,7-.43,7-3.62-3.83-3.82-3.83-3.82Z" transform="translate(-6.67 -18.82)" style="fill:#7E57C2;stroke:#263238;stroke-linecap:round;stroke-linejoin:round"></path><path d="M42.12,362.66s.43,5.74,2.13,7,10.21.43,11.91-.64,1.28-7,0-6.59-3.83,2.34-7.23,1.49A66.18,66.18,0,0,0,42.12,362.66Z" transform="translate(-6.67 -18.82)" style="fill:#7E57C2;stroke:#263238;stroke-linecap:round;stroke-linejoin:round"></path><path d="M44.25,369.68s-1.28,3,.64,4.68,6.8,5.53,7.87,2.34-1.49-4.47-3.19-5.53S44.25,369.68,44.25,369.68Z" transform="translate(-6.67 -18.82)" style="fill:#7E57C2;stroke:#263238;stroke-linecap:round;stroke-linejoin:round"></path><path d="M72.54,369s-4.68-21.69-5.32-23.39-8.93-1.28-10.42,0-3,12.33-3,14.25,0,3.4,2.34,2.55,4.47-7.66,4.47-7.66-1.28,11.49.63,14.89S70.83,375,70.83,375" transform="translate(-6.67 -18.82)" style="fill:#7E57C2;stroke:#263238;stroke-linecap:round;stroke-linejoin:round"></path></g><g id="freepik--Device--inject-6"><polygon points="224.33 448.05 103.25 448.05 88.46 378.29 239.82 378.29 224.33 448.05" style="fill:#fff;stroke:#263238;stroke-linecap:round;stroke-linejoin:round"></polygon><path d="M155,434.61c-20.22,13.93-35.43,21.76-46.35,26.16l1.29,6.1H231l12.65-57C223.65,409.19,187.9,411.93,155,434.61Z" transform="translate(-6.67 -18.82)" style="fill:#dedede;stroke:#263238;stroke-linecap:round;stroke-linejoin:round"></path><circle cx="164.14" cy="417.9" r="7.93" style="fill:#fff;stroke:#263238;stroke-linecap:round;stroke-linejoin:round"></circle></g></svg>